<svg width="220" height="178" viewBox="0 0 220 178" fill="none" xmlns="http://www.w3.org/2000/svg">
<circle cx="110" cy="88" r="80" fill="#EAECF0"/>
<circle cx="26" cy="28" r="8" fill="#F2F4F7"/>
<circle cx="198" cy="134" r="6" fill="#F2F4F7"/>
<circle cx="25" cy="146" r="10" fill="#F2F4F7"/>
<circle cx="210" cy="54" r="10" fill="#F2F4F7"/>
<circle cx="191" cy="19" r="7" fill="#F2F4F7"/>
<g filter="url(#filter0_dd_48_6220)">
<path d="M110 54.9529L116.912 52.0578L110.001 55.002V137.432L173.69 110.743V28.2767L174 28.1466L173.69 28.009V27.8705L173.53 27.9384L110.503 0L46 27.4765L46.3053 27.6076L46 109.74L110 137.383L110 54.9529Z" fill="#F9FAFB"/>
<path d="M110 54.9531V137.383L46 109.74L46.3053 27.6076L110 54.9531Z" fill="url(#paint0_linear_48_6220)"/>
<path d="M110.002 55.002V137.432L173.691 110.744V27.8705L110.002 55.002Z" fill="url(#paint1_linear_48_6220)"/>
<path d="M110 54.9529L174 28.1466L110.503 0L46 27.4765L110 54.9529Z" fill="#F2F4F7"/>
<path d="M70.125 17.1997L133.881 44.9503L134.46 65.173L152.298 57.8125L151.759 37.4622L86.1167 10.3876L70.125 17.1997Z" fill="#EAECF0"/>
</g>
<g filter="url(#filter1_b_48_6220)">
<rect x="82" y="104" width="56" height="56" rx="28" fill="#344054" fill-opacity="0.4"/>
<rect x="82" y="104" width="56" height="56" rx="28" fill="url(#paint2_linear_48_6220)"/>
<g clip-path="url(#clip0_48_6220)">
<path d="M114.666 136.667L110 132M110 132L105.333 136.667M110 132V142.5M119.788 139.455C120.926 138.835 121.825 137.853 122.343 136.665C122.861 135.477 122.969 134.15 122.649 132.894C122.329 131.639 121.6 130.525 120.577 129.729C119.555 128.933 118.296 128.501 117 128.5H115.53C115.177 127.134 114.518 125.866 113.605 124.791C112.691 123.716 111.545 122.862 110.254 122.294C108.963 121.726 107.56 121.457 106.15 121.509C104.74 121.561 103.36 121.932 102.114 122.594C100.869 123.256 99.7889 124.192 98.9568 125.331C98.1246 126.47 97.5615 127.783 97.3099 129.171C97.0582 130.559 97.1245 131.987 97.5038 133.345C97.8831 134.704 98.5655 135.96 99.4997 137.017" stroke="white" stroke-width="2.33333" stroke-linecap="round" stroke-linejoin="round"/>
</g>
</g>
<defs>
<filter id="filter0_dd_48_6220" x="26" y="0" width="168" height="177.432" filterUnits="userSpaceOnUse" color-interpolation-filters="sRGB">
<feFlood flood-opacity="0" result="BackgroundImageFix"/>
<feColorMatrix in="SourceAlpha" type="matrix" values="0 0 0 0 0 0 0 0 0 0 0 0 0 0 0 0 0 0 127 0" result="hardAlpha"/>
<feMorphology radius="4" operator="erode" in="SourceAlpha" result="effect1_dropShadow_48_6220"/>
<feOffset dy="8"/>
<feGaussianBlur stdDeviation="4"/>
<feColorMatrix type="matrix" values="0 0 0 0 0.0627451 0 0 0 0 0.0941176 0 0 0 0 0.156863 0 0 0 0.03 0"/>
<feBlend mode="normal" in2="BackgroundImageFix" result="effect1_dropShadow_48_6220"/>
<feColorMatrix in="SourceAlpha" type="matrix" values="0 0 0 0 0 0 0 0 0 0 0 0 0 0 0 0 0 0 127 0" result="hardAlpha"/>
<feMorphology radius="4" operator="erode" in="SourceAlpha" result="effect2_dropShadow_48_6220"/>
<feOffset dy="20"/>
<feGaussianBlur stdDeviation="12"/>
<feColorMatrix type="matrix" values="0 0 0 0 0.0627451 0 0 0 0 0.0941176 0 0 0 0 0.156863 0 0 0 0.08 0"/>
<feBlend mode="normal" in2="effect1_dropShadow_48_6220" result="effect2_dropShadow_48_6220"/>
<feBlend mode="normal" in="SourceGraphic" in2="effect2_dropShadow_48_6220" result="shape"/>
</filter>
<filter id="filter1_b_48_6220" x="74" y="96" width="72" height="72" filterUnits="userSpaceOnUse" color-interpolation-filters="sRGB">
<feFlood flood-opacity="0" result="BackgroundImageFix"/>
<feGaussianBlur in="BackgroundImage" stdDeviation="4"/>
<feComposite in2="SourceAlpha" operator="in" result="effect1_backgroundBlur_48_6220"/>
<feBlend mode="normal" in="SourceGraphic" in2="effect1_backgroundBlur_48_6220" result="shape"/>
</filter>
<linearGradient id="paint0_linear_48_6220" x1="46" y1="110.154" x2="71.2754" y2="41.7014" gradientUnits="userSpaceOnUse">
<stop stop-color="#DEE1E8"/>
<stop offset="1" stop-color="#EFF1F5"/>
</linearGradient>
<linearGradient id="paint1_linear_48_6220" x1="110.001" y1="56.6154" x2="182.167" y2="70.983" gradientUnits="userSpaceOnUse">
<stop stop-color="#E4E7EC"/>
<stop offset="1" stop-color="#F2F4F7"/>
</linearGradient>
<linearGradient id="paint2_linear_48_6220" x1="110" y1="76" x2="54" y2="132" gradientUnits="userSpaceOnUse">
<stop stop-color="#FF8960"/>
<stop offset="1" stop-color="#FF62A5"/>
</linearGradient>
<clipPath id="clip0_48_6220">
<rect width="28" height="28" fill="white" transform="translate(96 118)"/>
</clipPath>
</defs>
</svg>
