<svg width="240" height="256" viewBox="0 0 240 256" fill="none" xmlns="http://www.w3.org/2000/svg">
<rect x="35" y="193.013" width="169.521" height="62.8" rx="13.5" fill="white"/>
<rect opacity="0.3" x="94" y="206.013" width="94.95" height="6.58322" rx="3.29161" fill="#1B3554"/>
<rect opacity="0.3" x="94" y="218.013" width="69.93" height="6.58322" rx="3.29161" fill="#1B3554"/>
<rect opacity="0.15" x="94" y="236.013" width="27.1528" height="6.58322" rx="3.29161" fill="#1B3554"/>
<ellipse cx="65.411" cy="216.374" rx="15.411" ry="15.3608" fill="#BAC2CB"/>
<path d="M62.9394 222.073C63.2327 222.367 63.616 222.513 64 222.513C64.384 222.513 64.7672 222.367 65.0605 222.073L72.5607 214.573C73.1464 213.987 73.1464 213.038 72.5607 212.452C71.9749 211.866 71.0254 211.866 70.4396 212.452L64 218.891L60.5604 215.452C59.9746 214.866 59.0251 214.866 58.4393 215.452C57.8536 216.038 57.8536 216.987 58.4393 217.573L62.9394 222.073Z" fill="white"/>
<rect x="35" y="120.015" width="169.521" height="62.8" rx="13.5" fill="white"/>
<rect opacity="0.3" x="94" y="133.015" width="94.95" height="6.58322" rx="3.29161" fill="#1B3554"/>
<rect opacity="0.3" x="94" y="145.015" width="69.93" height="6.58322" rx="3.29161" fill="#1B3554"/>
<rect opacity="0.15" x="94" y="163.015" width="27.1528" height="6.58322" rx="3.29161" fill="#1B3554"/>
<ellipse cx="65.411" cy="143.375" rx="15.411" ry="15.3608" fill="#BAC2CB"/>
<path d="M62.9394 149.075C63.2327 149.368 63.616 149.515 64 149.515C64.384 149.515 64.7672 149.368 65.0605 149.075L72.5607 141.575C73.1464 140.989 73.1464 140.04 72.5607 139.454C71.9749 138.868 71.0254 138.868 70.4396 139.454L64 145.893L60.5604 142.454C59.9746 141.868 59.0251 141.868 58.4393 142.454C57.8536 143.04 57.8536 143.989 58.4393 144.575L62.9394 149.075Z" fill="white"/>
<g filter="url(#filter0_d_48_9616)">
<path fill-rule="evenodd" clip-rule="evenodd" d="M49.5 16.0971L191.021 36.1842C198.477 37.3252 204.521 42.5356 204.521 47.8138V83.0721C204.521 88.3504 198.477 93.5532 191.021 94.6848L50.5 109.601C43.0442 110.554 35 104.296 35 94.3982V31.2849C35 21.3875 42.0442 15.1364 49.5 16.0971Z" fill="white"/>
</g>
<path opacity="0.3" fill-rule="evenodd" clip-rule="evenodd" d="M97.2916 44.8815L185.658 51.0258C187.476 51.1585 188.95 52.4009 188.95 53.8004C188.95 55.2 187.476 56.265 185.658 56.1793L97.2916 52.2139C95.4737 52.1364 94 50.415 94 48.369C94 46.3229 95.4737 44.7614 97.2916 44.8815Z" fill="#1B3554"/>
<path opacity="0.3" fill-rule="evenodd" clip-rule="evenodd" d="M97.2916 58.2469L160.638 59.7828C162.456 59.8285 163.93 61.1436 163.93 62.7202C163.93 64.2968 162.456 65.5749 160.638 65.5751L97.2916 65.5793C95.4737 65.5794 94 63.9208 94 61.8748C94 59.8287 95.4737 58.2044 97.2916 58.2469Z" fill="#1B3554"/>
<path opacity="0.15" fill-rule="evenodd" clip-rule="evenodd" d="M97.2916 78.2956L117.861 77.4482C119.679 77.3723 121.153 78.8251 121.153 80.6933C121.153 82.5614 119.679 84.173 117.861 84.2926L97.2916 85.628C95.4737 85.7445 94 84.1801 94 82.134C94 80.088 95.4737 78.3695 97.2916 78.2956Z" fill="#1B3554"/>
<path fill-rule="evenodd" clip-rule="evenodd" d="M67.5688 74.3375C77.2717 74.1331 85.1375 65.8884 85.1375 55.9249C85.1375 45.9613 77.2717 37.331 67.5688 36.6559C57.8658 35.989 50 44.24 50 55.0777C50 65.9155 57.8658 74.5394 67.5688 74.3375Z" fill="#7DFBA5"/>
<path d="M64.7521 62.4661C65.0864 62.8304 65.5233 63.0135 65.9611 63.0162C66.3989 63.0188 66.8358 62.8418 67.1701 62.4839L75.7204 53.5283C76.3882 52.8449 76.3882 51.705 75.7204 50.9777C75.0527 50.2481 73.9702 50.2074 73.3024 50.8909L65.9611 58.5567L62.04 54.218C61.3722 53.4711 60.2897 53.4405 59.6219 54.1537C58.9541 54.8692 58.9541 56.0577 59.6219 56.8045L64.7521 62.4661Z" fill="white"/>
<defs>
<filter id="filter0_d_48_9616" x="0" y="0" width="239.521" height="163.697" filterUnits="userSpaceOnUse" color-interpolation-filters="sRGB">
<feFlood flood-opacity="0" result="BackgroundImageFix"/>
<feColorMatrix in="SourceAlpha" type="matrix" values="0 0 0 0 0 0 0 0 0 0 0 0 0 0 0 0 0 0 127 0" result="hardAlpha"/>
<feOffset dy="19"/>
<feGaussianBlur stdDeviation="17.5"/>
<feColorMatrix type="matrix" values="0 0 0 0 0.226735 0 0 0 0 0.437054 0 0 0 0 0.687819 0 0 0 0.189057 0"/>
<feBlend mode="normal" in2="BackgroundImageFix" result="effect1_dropShadow_48_9616"/>
<feBlend mode="normal" in="SourceGraphic" in2="effect1_dropShadow_48_9616" result="shape"/>
</filter>
</defs>
</svg>
